<svg xmlns="http://www.w3.org/2000/svg" viewBox="0 0 512 512" width="512" height="512">
  <defs>
    <!-- Background Gradient -->
    <linearGradient id="bgGrad" x1="0%" y1="0%" x2="100%" y2="100%">
      <stop offset="0%" stop-color="#140D36" />
      <stop offset="50%" stop-color="#0E0826" />
      <stop offset="100%" stop-color="#070414" />
    </linearGradient>

    <!-- Border Glow Gradient -->
    <linearGradient id="borderGlow" x1="0%" y1="0%" x2="100%" y2="100%">
      <stop offset="0%" stop-color="#A855F7" />
      <stop offset="50%" stop-color="#5B3DF5" />
      <stop offset="100%" stop-color="#00F0FF" />
    </linearGradient>

    <!-- Aura Glow Radial -->
    <radialGradient id="auraGlow" cx="50%" cy="45%" r="60%">
      <stop offset="0%" stop-color="#7C3AED" stop-opacity="0.65" />
      <stop offset="60%" stop-color="#5B3DF5" stop-opacity="0.25" />
      <stop offset="100%" stop-color="#0E0826" stop-opacity="0" />
    </radialGradient>

    <!-- S Upper Arc Gradient -->
    <linearGradient id="sTopGrad" x1="0%" y1="0%" x2="100%" y2="50%">
      <stop offset="0%" stop-color="#00F0FF" />
      <stop offset="50%" stop-color="#3B82F6" />
      <stop offset="100%" stop-color="#8B5CF6" />
    </linearGradient>

    <!-- Lightning Bolt Gradient -->
    <linearGradient id="boltGrad" x1="20%" y1="0%" x2="80%" y2="100%">
      <stop offset="0%" stop-color="#FFF9D2" />
      <stop offset="35%" stop-color="#FFE600" />
      <stop offset="70%" stop-color="#FF9900" />
      <stop offset="100%" stop-color="#FF5500" />
    </linearGradient>

    <!-- S Bottom Arc Gradient -->
    <linearGradient id="sBottomGrad" x1="0%" y1="50%" x2="100%" y2="100%">
      <stop offset="0%" stop-color="#8B5CF6" />
      <stop offset="50%" stop-color="#D946EF" />
      <stop offset="100%" stop-color="#EC4899" />
    </linearGradient>

    <!-- Pay Arrow Gradient -->
    <linearGradient id="arrowGrad" x1="0%" y1="0%" x2="100%" y2="100%">
      <stop offset="0%" stop-color="#00F5D4" />
      <stop offset="100%" stop-color="#00BBF9" />
    </linearGradient>

    <!-- Drop Shadows -->
    <filter id="shadowBolt" x="-20%" y="-20%" width="140%" height="140%">
      <feDropShadow dx="0" dy="8" stdDeviation="12" flood-color="#FF9900" flood-opacity="0.65" />
    </filter>
    <filter id="shadowS" x="-20%" y="-20%" width="140%" height="140%">
      <feDropShadow dx="0" dy="10" stdDeviation="16" flood-color="#5B3DF5" flood-opacity="0.75" />
    </filter>
    <filter id="glowSpark" x="-50%" y="-50%" width="200%" height="200%">
      <feDropShadow dx="0" dy="0" stdDeviation="8" flood-color="#00F0FF" flood-opacity="0.9" />
    </filter>
  </defs>

  <!-- Squircle Base -->
  <rect x="16" y="16" width="480" height="480" rx="112" ry="112" fill="url(#bgGrad)" />
  <rect x="16" y="16" width="480" height="480" rx="112" ry="112" fill="url(#auraGlow)" />
  <rect x="16" y="16" width="480" height="480" rx="112" ry="112" fill="none" stroke="url(#borderGlow)" stroke-width="6" opacity="0.75" />

  <!-- Inner Soft Bevel Highlight -->
  <rect x="22" y="22" width="468" height="468" rx="106" ry="106" fill="none" stroke="#FFFFFF" stroke-width="1.5" opacity="0.15" />

  <!-- SUPER PAY SYMBOL GROUP -->
  <g filter="url(#shadowS)" transform="translate(0, -6)">
    <!-- Top Arc of 'S' -->
    <path d="M 334 142 C 308 116, 260 112, 214 122 C 160 134, 126 172, 138 214 C 146 242, 172 260, 214 274 L 272 292 C 304 302, 320 314, 316 332 C 310 354, 276 372, 234 370 C 188 368, 154 340, 142 308" 
          fill="none" 
          stroke="url(#sTopGrad)" 
          stroke-width="44" 
          stroke-linecap="round" 
          stroke-linejoin="round" />

    <!-- Bottom Flow of 'S' -->
    <path d="M 214 274 L 272 292 C 318 306, 344 326, 338 356 C 330 394, 286 414, 232 414 C 172 414, 132 382, 118 338" 
          fill="none" 
          stroke="url(#sBottomGrad)" 
          stroke-width="44" 
          stroke-linecap="round" 
          stroke-linejoin="round" />

    <!-- Central Super Lightning Bolt / Pay Surge -->
    <g filter="url(#shadowBolt)">
      <polygon points="286,96 172,260 252,260 216,420 354,234 272,234" 
               fill="url(#boltGrad)" />
      <!-- Inner Lightning Core Glow -->
      <polygon points="280,126 198,246 256,246 230,370 326,248 268,248" 
               fill="#FFFFFF" 
               opacity="0.85" />
    </g>
  </g>

  <!-- Dynamic Star Sparkles (Super Energy) -->
  <g filter="url(#glowSpark)">
    <!-- Sparkle Top-Right -->
    <path d="M 388 120 Q 388 140 408 140 Q 388 140 388 160 Q 388 140 368 140 Q 388 140 388 120 Z" fill="#00F0FF" />
    <circle cx="388" cy="140" r="3" fill="#FFFFFF" />

    <!-- Sparkle Bottom-Left -->
    <path d="M 112 376 Q 112 388 124 388 Q 112 388 112 400 Q 112 388 100 388 Q 112 388 112 376 Z" fill="#FFD700" />
  </g>

  <!-- Subtle 'SUPER PAY' brand badge text on bottom curved banner -->
  <g opacity="0.95">
    <rect x="146" y="438" width="220" height="34" rx="17" fill="#1C1444" stroke="#8B5CF6" stroke-width="1.5" />
    <text x="256" y="461" 
          font-family="system-ui, -apple-system, sans-serif" 
          font-size="14" 
          font-weight="900" 
          letter-spacing="3" 
          fill="#FFFFFF" 
          text-anchor="middle">SUPER PAY</text>
  </g>
</svg>